<svg xmlns="http://www.w3.org/2000/svg" aria-hidden="true" style="position: absolute; width: 0; height: 0; overflow: hidden;">
  <defs>    
    <symbol id="icon-uparrow" viewBox="0 0 32 32">
      <path fill="#6ac259" style="fill: var(--color1, #6ac259)" d="M16 32c-2.039 0-3.692-1.653-3.692-3.692v-24.615c0-2.039 1.653-3.692 3.692-3.692s3.692 1.653 3.692 3.692v24.615c0 2.039-1.653 3.692-3.692 3.692z"></path>
      <path fill="#6ac259" style="fill: var(--color1, #6ac259)" d="M28.308 19.692c-0.945 0-1.89-0.36-2.611-1.081l-9.697-9.697-9.697 9.697c-1.442 1.442-3.78 1.442-5.222 0s-1.442-3.78 0-5.222l12.307-12.307c1.442-1.442 3.78-1.442 5.221 0l12.308 12.307c1.442 1.442 1.442 3.78 0 5.222-0.721 0.721-1.666 1.081-2.611 1.081z"></path>
    </symbol>
  </defs>
</svg>
